HIERARCHY
ROOT hip
{
	OFFSET 0.000000 0.000000 0.000000 
	CHANNELS 6 Xposition Yposition Zposition Xrotation Zrotation Yrotation
	JOINT abdomen
	{
		OFFSET 0.000000 3.402643 0.000000 
		CHANNELS 3 Xrotation Zrotation Yrotation
		JOINT chest
		{
			OFFSET 0.000000 8.438565 -0.680529 
			CHANNELS 3 Xrotation Zrotation Yrotation
			JOINT neck
			{
				OFFSET 0.000000 10.207942 -0.272212 
				CHANNELS 3 Xrotation Zrotation Yrotation
				JOINT head
				{
					OFFSET 0.000000 3.130431 0.000000 
					CHANNELS 3 Xrotation Zrotation Yrotation
					End Site
					{
						OFFSET 0.000000 3.130435 0.000000 
					}
				}
			}
			JOINT lCollar
			{
				OFFSET 3.470700 6.669187 -0.816635 
				CHANNELS 3 Yrotation Zrotation Xrotation
				JOINT lShldr
				{
					OFFSET 3.198488 0.000000 0.000000 
					CHANNELS 3 Zrotation Yrotation Xrotation
					JOINT lForeArm
					{
						OFFSET 10.139888 0.000000 0.000000 
						CHANNELS 3 Yrotation Zrotation Xrotation
						JOINT lHand
						{
							OFFSET 8.370511 0.000000 0.000000 
							CHANNELS 3 Zrotation Yrotation Xrotation
							End Site
							{
								OFFSET 4.083176 0.000000 0.000000 
							}
						}
					}
				}
			}
			JOINT rCollar
			{
				OFFSET -3.470700 6.669187 -0.816635 
				CHANNELS 3 Yrotation Zrotation Xrotation
				JOINT rShldr
				{
					OFFSET -3.198488 0.000000 0.000000 
					CHANNELS 3 Zrotation Yrotation Xrotation
					JOINT rForeArm
					{
						OFFSET -10.139888 0.000000 0.000000 
						CHANNELS 3 Yrotation Zrotation Xrotation
						JOINT rHand
						{
							OFFSET -8.370511 0.000000 0.000000 
							CHANNELS 3 Zrotation Yrotation Xrotation
							End Site
							{
								OFFSET -4.083176 0.000000 0.000000 
							}
						}
					}
				}
			}
		}
	}
	JOINT lThigh
	{
		OFFSET 5.308129 -1.633274 1.361059 
		CHANNELS 3 Xrotation Zrotation Yrotation
		JOINT lShin
		{
			OFFSET -2.041588 -20.007561 0.000000 
			CHANNELS 3 Xrotation Zrotation Yrotation
			JOINT lFoot
			{
				OFFSET 0.000000 -19.190928 -1.224953 
				CHANNELS 3 Xrotation Yrotation Zrotation
				End Site
				{
					OFFSET 0.000000 -2.449906 4.627600 
				}
			}
		}
	}
	JOINT rThigh
	{
		OFFSET -5.308129 -1.633274 1.361059 
		CHANNELS 3 Xrotation Zrotation Yrotation
		JOINT rShin
		{
			OFFSET 2.041588 -20.007561 0.000000 
			CHANNELS 3 Xrotation Zrotation Yrotation
			JOINT rFoot
			{
				OFFSET 0.000000 -19.190928 -1.224953 
				CHANNELS 3 Xrotation Yrotation Zrotation
				End Site
				{
					OFFSET 0.000000 -2.449906 4.627600 
				}
			}
		}
	}
}
MOTION
Frames: 6
Frame Time: 0.016667
0.047265 43.873871 -1.567322 6.507110 1.795010 -4.082200 -11.787100 4.824600 3.855740 29.973101 1.281330 3.025150 14.308600 -19.117701 12.478300 14.238500 -1.145510 6.866320 2.000000 -2.000000 0.000000 99.266800 170.089005 7.828060 69.395103 -0.262963 0.128021 0.049905 -0.040787 -151.647995 -2.000000 2.000000 0.000000 -97.849998 157.417999 -1.688050 -50.781700 0.301292 0.105924 -0.124149 0.132345 167.501999 -22.358210 4.584435 -2.599535 20.288010 3.048213 1.534285 -4.794853 17.535231 2.876980 -10.681359 -4.245472 -12.924950 19.415905 -2.994275 -1.507416 -15.018501 -18.336981 -6.615770 
-0.014404 43.870132 -1.537620 6.750600 1.571070 -3.925190 -11.739900 4.991820 3.862500 30.129400 1.280750 3.067700 14.766900 -18.905800 12.369700 14.414100 -1.029980 6.854680 2.000000 -2.000000 0.000000 -80.674599 10.273600 -171.723999 69.024002 -0.263791 0.127707 0.050705 -0.043715 -152.731995 -2.000000 2.000000 0.000000 -98.082703 155.783997 -2.885130 -49.121601 0.304324 0.103375 -0.122531 0.131222 168.205002 -22.966402 4.571438 -4.414971 19.430861 3.076221 1.460996 -6.424288 18.692709 3.357060 -10.819510 -3.949897 -13.170343 19.197411 -2.941038 -1.521275 -14.875152 -18.228565 -6.607267 
-0.061585 43.873604 -1.488965 6.798850 1.376970 -3.859100 -11.700400 5.105720 3.920130 30.197500 1.222720 3.127770 14.811200 -18.884800 12.239100 14.375200 -1.106870 6.802260 2.000000 -2.000000 0.000000 -80.586700 10.753800 -171.022003 68.848198 -0.264183 0.127556 0.052193 -0.048664 -154.578003 -2.000000 2.000000 0.000000 -98.266998 154.600006 -3.897830 -47.695801 0.306869 0.101117 -0.121150 0.130239 168.811005 -23.182968 4.574921 -6.324577 18.765640 3.133058 1.389465 -9.936357 20.046026 4.429990 -10.752464 -3.701699 -13.290749 19.200777 -2.920800 -1.528246 -15.109975 -18.168354 -6.696352 
-0.097448 43.857235 -1.429292 6.788660 1.221840 -4.102430 -11.556800 5.186740 4.168740 30.324301 1.154890 3.255600 14.793400 -18.761299 12.180900 14.394700 -1.106850 6.782350 2.000000 -2.000000 0.000000 -80.537804 10.783200 -170.992004 68.672401 -0.264574 0.127405 0.051881 -0.047673 -154.207001 -2.000000 2.000000 0.000000 -98.480698 153.572998 -4.666800 -46.787601 0.308460 0.099646 -0.121083 0.130191 168.839996 -23.331282 4.590183 -7.694685 18.629501 3.169052 1.357195 -11.270856 20.285881 4.831043 -10.681376 -3.484927 -13.274670 19.087091 -2.882370 -1.504305 -15.130798 -18.078688 -6.727468 
-0.121622 43.841125 -1.379975 7.012690 0.949873 -4.726770 -11.614900 5.358220 4.543800 30.246099 1.155160 3.468860 14.695600 -18.599501 12.003200 14.306800 -1.126190 6.692660 2.000000 -2.000000 0.000000 -80.557503 11.095700 -170.983002 68.545502 -0.264856 0.127294 0.051679 -0.047020 -153.962997 -2.000000 2.000000 0.000000 -98.792900 153.348007 -4.939680 -46.670399 0.308663 0.099454 -0.122352 0.131096 168.283005 -23.532431 4.898769 -8.492717 18.620193 3.170341 1.376976 -12.543840 20.258715 5.228605 -10.965212 -3.118601 -13.088872 19.065666 -2.836609 -1.536808 -14.893230 -17.847889 -6.611018 
-0.107557 43.807350 -1.314571 7.129380 0.658929 -4.868650 -11.621700 5.537820 4.693460 30.226801 1.212990 3.575970 14.422100 -18.649599 12.044600 14.199500 -1.184020 6.694170 2.000000 -2.000000 0.000000 -80.772499 11.320400 -170.955002 68.467300 -0.265029 0.127226 0.051583 -0.046706 -153.845993 -2.000000 2.000000 0.000000 -99.203102 153.395996 -4.890980 -47.119598 0.307881 0.100186 -0.123720 0.132051 167.688004 -23.613371 4.980927 -9.019297 18.549677 3.175184 1.368804 -12.448718 20.273432 5.172319 -11.126609 -2.836549 -13.131533 19.268381 -2.809729 -1.569032 -15.018090 -17.667126 -6.642972 
